<?xml version="1.0"?>
<svg version="1.1" id="Layer_1" xmlns="http://www.w3.org/2000/svg" x="0" y="0" viewBox="0 0 100 100" xml:space="preserve"><g><path d="M53.5 88.8c-1.6 0-3-1.1-3.3-2.7l-12-57.4-7.5 27.1c-.4 1.5-1.7 2.5-3.2 2.5H5v-6.7h19.9l10.5-37.9c.4-1.5 1.8-2.5 3.4-2.5 1.6 0 2.9 1.2 3.2 2.7l11.8 56.6 9.4-37.6c.4-1.4 1.6-2.4 3-2.5 1.5-.1 2.8.7 3.4 2.1l7.8 19.2H95v6.7H75.1c-1.4 0-2.6-.8-3.1-2.1l-4.8-11.8-10.4 41.8c-.4 1.5-1.8 2.5-3.3 2.5z" fill="#c33837"/></g><metadata xmlns:d="https://loading.io/stock/"><d:name>heartbeat</d:name><d:tags>pulse,wave,current,electric,heartbeat,web application</d:tags><d:license>pro</d:license><d:slug>9h2pbf</d:slug></metadata></svg>